<svg width="24" height="24" viewBox="0 0 24 24" fill="none" xmlns="http://www.w3.org/2000/svg">
<g clip-path="url(#clip0_160_3)">
<path d="M24 12C24 5.37258 18.6274 0 12 0C5.37258 0 0 5.37258 0 12C0 18.6274 5.37258 24 12 24C18.6274 24 24 18.6274 24 12Z" fill="#EA4335"/>
<path d="M4.00501 12.0105C3.84512 7.80069 7.53255 3.9103 11.7466 3.85983C13.8944 3.67664 15.984 4.5107 17.6094 5.87104C16.9426 6.60414 16.2642 7.32879 15.5396 8.00719C14.1087 7.13784 12.3859 6.47529 10.7135 7.06369C8.0161 7.83174 6.3826 11.0165 7.3808 13.6553C8.2074 16.4113 11.5596 17.9237 14.1867 16.766C15.547 16.2789 16.4439 15.0238 16.8375 13.6751C15.2784 13.644 13.719 13.6634 12.16 13.6204C12.1561 12.6928 12.1522 11.7687 12.1561 10.8411C14.756 10.8372 17.3598 10.8295 19.9637 10.8528C20.1236 13.1255 19.7882 15.5578 18.3107 17.3819C16.2875 19.9858 12.5496 20.7499 9.5088 19.7284C6.28165 18.6685 3.93477 15.4173 4.00501 12.0105Z" fill="white"/>
</g>
<defs>
<clipPath id="clip0_160_3">
<rect width="24" height="24" fill="white"/>
</clipPath>
</defs>
</svg>
