<svg width="37" height="37" viewBox="0 0 37 37" fill="none" xmlns="http://www.w3.org/2000/svg">
<rect width="37" height="37" rx="8" fill="#FEEEC3"/>
<path d="M23 10H8V23H23V10Z" stroke="#5E6366" stroke-width="2" stroke-linecap="round" stroke-linejoin="round"/>
<path d="M23 15H27L30 18V23H23V15Z" stroke="#5E6366" stroke-width="2" stroke-linecap="round" stroke-linejoin="round"/>
<path d="M12.5 28C13.8807 28 15 26.8807 15 25.5C15 24.1193 13.8807 23 12.5 23C11.1193 23 10 24.1193 10 25.5C10 26.8807 11.1193 28 12.5 28Z" stroke="#5E6366" stroke-width="2" stroke-linecap="round" stroke-linejoin="round"/>
<path d="M25.5 28C26.8807 28 28 26.8807 28 25.5C28 24.1193 26.8807 23 25.5 23C24.1193 23 23 24.1193 23 25.5C23 26.8807 24.1193 28 25.5 28Z" stroke="#5E6366" stroke-width="2" stroke-linecap="round" stroke-linejoin="round"/>
</svg>
